<svg xmlns="http://www.w3.org/2000/svg" xmlns:xlink="http://www.w3.org/1999/xlink" width="500" zoomAndPan="magnify" viewBox="0 0 375 374.999991" height="500" preserveAspectRatio="xMidYMid meet" version="1.0"><defs><g/></defs><rect x="-37.5" width="450" fill="#ffffff" y="-37.499999" height="449.999989" fill-opacity="1"/><rect x="-37.5" width="450" fill="#ffffff" y="-37.499999" height="449.999989" fill-opacity="1"/><rect x="-37.5" width="450" fill="#f1f5f9" y="-37.499999" height="449.999989" fill-opacity="1"/><g fill="#4338ca" fill-opacity="1"><g transform="translate(0.961496, 220.955252)"><g><path d="M 35.539062 1.449219 C 53.984375 1.347656 64.65625 -6.632812 64.554688 -19.789062 L 64.554688 -64.96875 C 64.554688 -66.730469 65.589844 -68.492188 67.246094 -69.527344 C 67.765625 -69.835938 68.386719 -70.25 69.007812 -70.667969 C 69.628906 -71.082031 69.941406 -71.804688 69.941406 -72.53125 C 69.941406 -73.773438 69.007812 -75.121094 67.660156 -75.121094 L 35.539062 -75.121094 C 34.191406 -75.121094 33.363281 -73.773438 33.363281 -72.53125 C 33.363281 -71.804688 33.675781 -71.183594 34.296875 -70.667969 C 34.816406 -70.25 35.539062 -69.835938 36.371094 -69.421875 C 37.820312 -68.699219 38.855469 -67.246094 39.167969 -65.589844 L 39.167969 -12.953125 C 39.167969 -8.703125 38.441406 -4.765625 35.023438 -4.765625 C 31.914062 -4.765625 29.324219 -9.222656 30.566406 -19.582031 C 31.601562 -28.597656 24.867188 -32.742188 17.925781 -32.742188 C 9.84375 -32.742188 4.042969 -27.769531 3.9375 -20.828125 C 3.625 -7.976562 17.40625 1.449219 35.539062 1.449219 Z M 35.539062 1.449219 "/></g></g></g><g fill="#4338ca" fill-opacity="1"><g transform="translate(73.481915, 220.955252)"><g><path d="M 1.242188 -24.246094 C 1.65625 -7.5625 12.539062 1.449219 29.738281 1.449219 C 44.554688 1.449219 54.8125 -3.730469 57.507812 -16.476562 C 57.921875 -18.859375 57.300781 -20.207031 55.226562 -20.515625 C 53.257812 -20.722656 52.015625 -19.6875 51.496094 -17.40625 C 50.046875 -10.878906 45.074219 -7.355469 38.546875 -7.355469 C 32.535156 -7.460938 27.871094 -10.464844 24.972656 -18.027344 C 26.320312 -17.820312 27.976562 -17.71875 29.738281 -17.71875 C 41.136719 -17.71875 58.335938 -22.796875 56.367188 -34.609375 C 54.917969 -43 45.695312 -49.941406 31.1875 -49.941406 C 13.988281 -49.941406 0.828125 -41.03125 1.242188 -24.246094 Z M 28.289062 -43.933594 C 34.191406 -45.175781 39.269531 -36.578125 36.992188 -28.804688 C 35.539062 -23.519531 28.183594 -22.796875 23.519531 -23.210938 C 21.136719 -33.984375 23.625 -43 28.289062 -43.933594 Z M 28.289062 -43.933594 "/></g></g></g><g fill="#4338ca" fill-opacity="1"><g transform="translate(133.984672, 220.955252)"><g><path d="M 2.589844 -68.28125 C 3.9375 -68.28125 5.699219 -68.59375 7.046875 -68.59375 C 8.496094 -68.59375 9.53125 -68.179688 9.53125 -66.523438 L 9.53125 -10.15625 C 9.53125 -8.289062 8.394531 -6.527344 6.734375 -5.699219 C 5.90625 -5.285156 5.179688 -4.871094 4.664062 -4.457031 C 2.902344 -3.210938 3.832031 0 5.90625 0 L 35.953125 0 C 38.027344 0 39.0625 -3.210938 37.300781 -4.457031 C 36.679688 -4.871094 36.058594 -5.285156 35.539062 -5.59375 C 33.882812 -6.632812 32.847656 -8.394531 32.847656 -10.15625 L 32.847656 -67.039062 C 32.847656 -76.261719 29.425781 -77.503906 21.242188 -77.503906 C 14.507812 -77.503906 6.425781 -75.847656 1.863281 -73.152344 C -0.207031 -72.011719 0.3125 -68.492188 2.589844 -68.28125 Z M 2.589844 -68.28125 "/></g></g></g><g fill="#4338ca" fill-opacity="1"><g transform="translate(173.870896, 220.955252)"><g><path d="M 1.242188 -24.246094 C 1.242188 -7.5625 12.539062 1.449219 29.738281 1.449219 C 47.042969 1.449219 58.335938 -6.734375 58.335938 -24.246094 C 58.335938 -41.757812 47.042969 -49.941406 29.738281 -49.941406 C 12.539062 -49.941406 1.242188 -40.929688 1.242188 -24.246094 Z M 26.421875 -43.933594 C 31.1875 -44.761719 32.640625 -40.308594 35.230469 -25.179688 C 37.714844 -10.050781 37.714844 -5.285156 33.054688 -4.457031 C 28.390625 -3.625 26.835938 -8.1875 24.351562 -23.3125 C 21.757812 -38.441406 21.757812 -43.105469 26.421875 -43.933594 Z M 26.421875 -43.933594 "/></g></g></g><g fill="#4338ca" fill-opacity="1"><g transform="translate(235.513257, 220.955252)"><g><path d="M 5.800781 -43 L 11.605469 -43 L 11.605469 -14.402344 C 11.605469 -3.9375 17.925781 1.449219 29.839844 1.65625 C 45.695312 1.863281 49.839844 -4.558594 48.597656 -6.734375 C 48.285156 -7.253906 47.765625 -7.355469 47.042969 -7.355469 C 45.074219 -7.355469 41.550781 -5.699219 38.855469 -5.699219 C 36.679688 -5.699219 35.023438 -6.734375 35.023438 -10.671875 L 35.023438 -43 L 44.242188 -43 C 45.796875 -43 46.835938 -44.035156 46.835938 -45.589844 C 46.835938 -47.25 45.796875 -48.285156 44.242188 -48.285156 L 35.023438 -48.285156 L 35.023438 -69.941406 C 35.023438 -71.804688 33.777344 -72.84375 31.914062 -72.425781 L 20.828125 -70.148438 C 19.066406 -69.734375 17.71875 -68.28125 17.613281 -66.3125 C 16.683594 -57.714844 12.953125 -48.492188 5.285156 -48.285156 L 5.386719 -48.179688 C 4.042969 -48.078125 3.210938 -47.042969 3.210938 -45.695312 L 3.210938 -45.589844 C 3.210938 -44.035156 4.25 -43 5.800781 -43 Z M 5.800781 -43 "/></g></g></g><g fill="#4338ca" fill-opacity="1"><g transform="translate(285.034345, 220.955252)"><g><path d="M 5.800781 -43 L 11.605469 -43 L 11.605469 -14.402344 C 11.605469 -3.9375 17.925781 1.449219 29.839844 1.65625 C 45.695312 1.863281 49.839844 -4.558594 48.597656 -6.734375 C 48.285156 -7.253906 47.765625 -7.355469 47.042969 -7.355469 C 45.074219 -7.355469 41.550781 -5.699219 38.855469 -5.699219 C 36.679688 -5.699219 35.023438 -6.734375 35.023438 -10.671875 L 35.023438 -43 L 44.242188 -43 C 45.796875 -43 46.835938 -44.035156 46.835938 -45.589844 C 46.835938 -47.25 45.796875 -48.285156 44.242188 -48.285156 L 35.023438 -48.285156 L 35.023438 -69.941406 C 35.023438 -71.804688 33.777344 -72.84375 31.914062 -72.425781 L 20.828125 -70.148438 C 19.066406 -69.734375 17.71875 -68.28125 17.613281 -66.3125 C 16.683594 -57.714844 12.953125 -48.492188 5.285156 -48.285156 L 5.386719 -48.179688 C 4.042969 -48.078125 3.210938 -47.042969 3.210938 -45.695312 L 3.210938 -45.589844 C 3.210938 -44.035156 4.25 -43 5.800781 -43 Z M 5.800781 -43 "/></g></g></g><g fill="#4338ca" fill-opacity="1"><g transform="translate(334.555413, 220.955252)"><g><path d="M 2.488281 -39.582031 C 3.832031 -39.582031 5.59375 -39.890625 6.941406 -39.890625 C 8.394531 -39.890625 9.429688 -39.476562 9.429688 -37.820312 L 9.429688 -10.15625 C 9.429688 -8.289062 8.289062 -6.527344 6.632812 -5.699219 C 5.800781 -5.285156 5.078125 -4.871094 4.558594 -4.457031 C 2.796875 -3.210938 3.730469 0 5.800781 0 L 35.851562 0 C 37.921875 0 38.960938 -3.210938 37.199219 -4.457031 C 36.578125 -4.871094 35.953125 -5.285156 35.4375 -5.59375 C 33.777344 -6.632812 32.742188 -8.394531 32.742188 -10.15625 L 32.742188 -38.339844 C 32.742188 -47.558594 29.425781 -48.804688 21.242188 -48.804688 C 14.609375 -48.804688 6.425781 -47.144531 1.761719 -44.453125 C -0.3125 -43.3125 0.207031 -39.789062 2.488281 -39.582031 Z M 5.386719 -67.972656 C 5.386719 -60.925781 10.570312 -56.78125 19.375 -56.78125 C 28.183594 -56.78125 33.261719 -60.925781 33.261719 -67.972656 C 33.261719 -74.914062 28.183594 -78.957031 19.375 -78.957031 C 10.570312 -78.957031 5.386719 -74.914062 5.386719 -67.972656 Z M 5.386719 -67.972656 "/></g></g></g><path stroke-linecap="butt" transform="matrix(3.002447, 0.000000000000000495, -0.000000000000000495, 3, 58.226789, 252.327845)" fill="none" stroke-linejoin="miter" d="M -0.0000755971 0.0000933232 L 86.182219 0.0000933232 " stroke="#4338ca" stroke-width="1" stroke-opacity="1" stroke-miterlimit="4"/></svg>